<?xml version="1.0" standalone="no"?>
<!DOCTYPE svg PUBLIC "-//W3C//DTD SVG 20010904//EN"
        "http://www.w3.org/TR/2001/REC-SVG-20010904/DTD/svg10.dtd">
<svg version="1.0" xmlns="http://www.w3.org/2000/svg"
     width="736.000000pt" height="736.000000pt" viewBox="0 0 736.000000 736.000000"
     preserveAspectRatio="xMidYMid meet">
    <metadata>
        Created by potrace 1.11, written by Peter Selinger 2001-2013
    </metadata>
    <g transform="translate(0.000000,736.000000) scale(0.100000,-0.100000)"
       fill="#000000" stroke="none">
        <path d="M3634 7219 c-51 -9 -105 -31 -134 -55 -22 -19 -105 -104 -175 -179
-20 -22 -101 -107 -179 -190 -79 -82 -160 -168 -181 -190 -35 -38 -251 -266
-345 -365 -25 -26 -106 -111 -180 -190 -74 -78 -160 -168 -190 -200 -30 -31
-101 -106 -157 -166 -57 -60 -133 -140 -169 -179 -270 -283 -479 -639 -604
-1027 -34 -105 -102 -397 -95 -408 3 -4 0 -21 -4 -38 -22 -75 -34 -528 -18
-642 3 -19 8 -66 12 -104 3 -38 8 -72 9 -75 2 -3 7 -26 10 -51 16 -122 87
-371 148 -525 37 -92 146 -324 158 -335 3 -3 14 -21 24 -40 44 -81 181 -274
265 -375 14 -16 98 -102 187 -191 88 -88 169 -174 178 -190 10 -17 286 -298
615 -625 467 -467 607 -600 646 -619 28 -14 52 -25 55 -25 3 -1 25 -7 50 -15
73 -21 159 -20 255 3 63 15 139 63 227 144 53 48 97 90 97 93 1 3 217 221 481
485 264 264 516 524 561 577 44 54 84 98 88 98 7 0 148 139 230 228 98 104
281 365 336 477 11 22 25 47 31 55 13 19 96 199 98 216 1 6 8 20 16 30 8 9 13
19 11 21 -3 3 10 43 36 113 3 8 7 20 9 25 28 97 57 204 59 218 2 9 6 20 8 25
3 4 8 29 11 56 4 27 9 52 11 55 1 3 6 31 10 61 4 30 8 57 10 60 17 30 27 552
12 665 -3 28 -9 73 -12 100 -6 43 -48 261 -60 305 -31 117 -81 269 -107 330
-6 14 -16 39 -23 55 -100 236 -275 520 -425 688 -19 22 -46 51 -58 66 -13 14
-81 87 -152 161 -70 74 -147 155 -170 180 -48 52 -275 291 -335 354 -22 23
-103 109 -180 190 -77 81 -162 172 -190 200 -133 140 -242 255 -370 390 -190
202 -215 225 -255 246 -60 30 -123 40 -186 29z"/>
    </g>
</svg>
