<svg width="34" height="46" viewBox="0 0 34 46" fill="none" xmlns="http://www.w3.org/2000/svg">
<path d="M28.0117 34.8457C34.089 28.4308 34.089 18.0302 28.0117 11.6152L18.3833 1.45191C17.6237 0.65004 16.392 0.65004 15.6323 1.45191L6.00391 11.6152C-0.0733798 18.0302 -0.0733798 28.4308 6.00391 34.8457V34.8457C12.0812 41.2607 21.9344 41.2607 28.0117 34.8457V34.8457Z" fill="#414141"/>
<path d="M14.8787 43.8492C16.0503 45.0208 17.9497 45.0208 19.1213 43.8492L25.4853 37.4853C30.1716 32.799 30.1716 25.201 25.4853 20.5147V20.5147C20.799 15.8284 13.201 15.8284 8.51472 20.5147V20.5147C3.82843 25.201 3.82843 32.799 8.51472 37.4853L14.8787 43.8492Z" fill="url(#paint0_linear)"/>
<defs>
<linearGradient id="paint0_linear" x1="38.5668" y1="29.3536" x2="4.97918" y2="28.2929" gradientUnits="userSpaceOnUse">
<stop stop-color="#FF4E50"/>
<stop offset="1" stop-color="#F9D423"/>
</linearGradient>
</defs>
</svg>
